<svg width="56" height="56" viewBox="0 0 56 56" fill="none" xmlns="http://www.w3.org/2000/svg">
    <path fill-rule="evenodd" clip-rule="evenodd" d="M43.3333 19H38C36.8954 19 36 19.8954 36 21V41H39.1C39.5633 38.7178 41.581 37 44 37C46.419 37 48.4367 38.7178 48.9 41H50C51.1046 41 52 40.1046 52 39V30.625C52 30.218 51.8759 29.8208 51.6441 29.4862L44.9775 19.8612C44.6039 19.3218 43.9895 19 43.3333 19ZM42.2702 22H40C39.4477 22 39 22.4477 39 23V27C39 27.5523 39.4477 28 40 28H43.6667H45.0165C45.5597 28 46 27.5597 46 27.0165C46 26.8196 45.9409 26.6272 45.8302 26.4642L43.0976 22.4384C42.9114 22.1642 42.6016 22 42.2702 22Z" fill="#FFA730"/>
    <circle cx="44" cy="42" r="3.2" fill="#1A181E" stroke="#FFC34C" stroke-width="1.6"/>
    <path d="M20.2 42C20.2 43.7673 18.7673 45.2 17 45.2C15.2327 45.2 13.8 43.7673 13.8 42C13.8 40.2327 15.2327 38.8 17 38.8C18.7673 38.8 20.2 40.2327 20.2 42Z" fill="#1A181E" stroke="#FFC34C" stroke-width="1.6"/>
    <path fill-rule="evenodd" clip-rule="evenodd" d="M8 10C7.44772 10 7 10.4477 7 11V40C7 40.5523 7.44771 41 8 41H12.1C12.5633 38.7178 14.581 37 17 37C19.419 37 21.4367 38.7178 21.9 41H34V14C34 11.7909 32.2091 10 30 10H8Z" fill="#FF4B34"/>
    <line x1="8" y1="34.2" x2="34" y2="34.2" stroke="#CC3C2A" stroke-width="1.6"/>
    <line x1="36" y1="34.2" x2="52" y2="34.2" stroke="#D78B26" stroke-width="1.6"/>
    <line x1="4.8" y1="26.2" x2="17.2" y2="26.2" stroke="white" stroke-width="1.6" stroke-linecap="round"/>
    <line x1="9.8" y1="19.2" x2="20.2" y2="19.2" stroke="white" stroke-width="1.6" stroke-linecap="round"/>
</svg>
