<svg width="56" height="56" viewBox="0 0 56 56" fill="none" xmlns="http://www.w3.org/2000/svg">
    <path d="M50 27H20C18.8954 27 18 27.8954 18 29V48C18 49.1046 18.8954 50 20 50H50C51.1046 50 52 49.1046 52 48V29C52 27.8954 51.1046 27 50 27Z" fill="#FF4B34"/>
    <g opacity="0.2">
        <path opacity="0.8" d="M52 31.5H18V35.5H52V31.5Z" fill="black"/>
    </g>
    <path d="M31.7128 7L5.73205 22C4.77547 22.5523 4.44772 23.7755 5 24.7321L15 42.0526C15.5523 43.0091 16.7755 43.3369 17.7321 42.7846L43.7128 27.7846C44.6694 27.2323 44.9971 26.0091 44.4449 25.0526L34.4449 7.73205C33.8926 6.77547 32.6694 6.44772 31.7128 7Z" fill="#FFA730"/>
    <path d="M33.7036 7.94817L5.55778 24.1982C5.19906 24.4053 5.07616 24.864 5.28326 25.2227C5.49037 25.5814 5.94906 25.7043 6.30778 25.4972L34.4536 9.2472C34.8123 9.0401 34.9352 8.5814 34.7281 8.22268C34.521 7.86397 34.0623 7.74106 33.7036 7.94817Z" fill="#CD8424"/>
    <path d="M43.2151 24.4226L15.0693 40.6726C14.7106 40.8797 14.5877 41.3384 14.7948 41.6971C15.0019 42.0559 15.4606 42.1788 15.8193 41.9717L43.9651 25.7217C44.3239 25.5146 44.4468 25.0559 44.2397 24.6971C44.0326 24.3384 43.5739 24.2155 43.2151 24.4226Z" fill="#CD8424"/>
    <path fill-rule="evenodd" clip-rule="evenodd" d="M28.1525 30.8419C28.935 30.3913 29.6209 29.7908 30.1711 29.0748C30.7213 28.3589 31.125 27.5414 31.3591 26.6693C31.5931 25.7972 31.6532 24.8876 31.5354 23.9923C31.4175 23.0971 31.1243 22.2336 30.6726 21.4518C30.221 20.669 29.6194 19.9828 28.9025 19.4325C28.1857 18.8822 27.3678 18.4785 26.4948 18.2445C25.6219 18.0105 24.7112 17.9508 23.8151 18.0687C22.9191 18.1867 22.0553 18.4798 21.2727 18.9318C20.4898 19.3834 19.8035 19.9849 19.2531 20.7018C18.7028 21.4186 18.2992 22.2368 18.0651 23.1097C17.8311 23.9827 17.7714 24.8932 17.8894 25.7892C18.0073 26.6852 18.3007 27.5493 18.7526 28.3319C19.6664 29.9112 21.17 31.0629 22.9328 31.5336C24.6956 32.0043 26.5732 31.7555 28.1525 30.8419V30.8419ZM28.8425 32.0419C30.7348 30.9426 32.1135 29.1375 32.676 27.0226C33.2385 24.9077 32.9387 22.6559 31.8425 20.7618C30.7433 18.8695 28.9383 17.4908 26.8234 16.9283C24.7085 16.3659 22.4568 16.6656 20.5627 17.7618C18.6711 18.8591 17.2922 20.6627 16.7297 22.776C16.1672 24.8893 16.4669 27.1393 17.5627 29.0319C18.6653 30.9208 20.472 32.2952 22.5866 32.8539C24.7012 33.4125 26.9509 33.1097 28.8425 32.0118V32.0419Z" fill="#CD8424"/>
    <circle cx="24.7028" cy="24.8894" r="3" fill="white"/>
</svg>
