<svg width="57" height="56" viewBox="0 0 57 56" fill="none" xmlns="http://www.w3.org/2000/svg">
    <path fill-rule="evenodd" clip-rule="evenodd" d="M45.7662 26.2C46.8156 26.2 47.6662 27.0507 47.6662 28.1V39.0379C47.6662 40.6396 46.3678 41.9379 44.7662 41.9379H44.0867C42.9269 41.9379 41.9867 42.8781 41.9867 44.0379V46.4085L38.2171 42.5671C37.8222 42.1647 37.2821 41.9379 36.7183 41.9379H31.7662C30.7169 41.9379 29.8662 41.0873 29.8662 40.0379V36.6C29.8662 35.9925 29.3737 35.5 28.7662 35.5C28.1587 35.5 27.6662 35.9925 27.6662 36.6V40.0379C27.6662 42.3023 29.5018 44.1379 31.7662 44.1379H36.6763L40.5879 48.124C41.9049 49.4662 44.1867 48.5337 44.1867 46.6532V44.1379H44.7662C47.5829 44.1379 49.8662 41.8546 49.8662 39.0379V28.1C49.8662 25.8356 48.0306 24 45.7662 24H41.3431C40.7356 24 40.2431 24.4925 40.2431 25.1C40.2431 25.7075 40.7356 26.2 41.3431 26.2H45.7662Z" fill="#FFA730"/>
    <path d="M7.56641 13.1C7.56641 10.2833 9.84976 8 12.6664 8H35.6664C38.4831 8 40.7664 10.2833 40.7664 13.1V31.5039C40.7664 34.3205 38.4831 36.6038 35.6664 36.6038H25.0644L18.1706 43.4976C16.8476 44.8206 14.5856 43.8836 14.5856 42.0127V36.6038H12.6664C9.84976 36.6038 7.56641 34.3205 7.56641 31.5038V13.1Z" fill="#FF4B34"/>
    <path d="M23.6387 26.2953C24.4004 26.2953 24.752 25.8031 24.8105 25.0531C24.8691 23.9047 25.2676 23.307 26.7793 22.4164C28.3262 21.4906 29.2402 20.2484 29.2402 18.432C29.2402 15.8422 27.1191 14.0492 24.0605 14.0492C21.7168 14.0492 19.9355 15.0336 19.2207 16.6508C19.0098 17.1078 18.9043 17.5179 18.9043 18.0219C18.9043 18.7367 19.3145 19.1703 20.041 19.1703C20.627 19.1703 20.9902 18.9125 21.2246 18.1859C21.5996 16.9086 22.5371 16.2054 23.9551 16.2054C25.5137 16.2054 26.5801 17.1547 26.5801 18.5375C26.5801 19.6859 26.0762 20.389 24.6582 21.2445C23.1348 22.1586 22.4082 23.1547 22.4082 24.6547V24.9242C22.4082 25.6976 22.8184 26.2953 23.6387 26.2953ZM23.6387 31.2758C24.5176 31.2758 25.1855 30.6195 25.1855 29.764C25.1855 28.9086 24.5176 28.2523 23.6387 28.2523C22.7832 28.2523 22.1035 28.9086 22.1035 29.764C22.1035 30.6195 22.7832 31.2758 23.6387 31.2758Z" fill="white"/>
    <path d="M37.666 19.5V31.5C37.666 32.6046 36.7706 33.5 35.666 33.5H30.166" stroke="#FF624B" stroke-width="2" stroke-linecap="round"/>
    <path d="M45.666 36V38C45.666 39.1046 44.7706 40 43.666 40H43.166" stroke="#FFC34C" stroke-width="1.5" stroke-linecap="round"/>
    <circle cx="11.166" cy="31.5" r="1.5" fill="#FF624B"/>
    <circle cx="12.666" cy="29" r="1" fill="#FF624B"/>
</svg>
